<svg xmlns="http://www.w3.org/2000/svg" viewBox="0 0 34.18 44"><defs><style>.cls-1{opacity:0.9;}.cls-2{fill:#ea5198;}</style></defs><title>Plan de travail 6</title><g id="_HOME" data-name="#HOME"><g id="Calque_2" data-name="Calque 2"><g class="cls-1"><path class="cls-2" d="M14.75,8.66a4.33,4.33,0,1,0-4.33-4.33A4.33,4.33,0,0,0,14.75,8.66Zm0-6.92a2.6,2.6,0,1,1-2.6,2.6A2.6,2.6,0,0,1,14.75,1.73Z"/><path class="cls-2" d="M19.25,27.84,18.7,11.79l3.58,6.51,1.49,6.56,1.69-.38L23.94,17.8a.87.87,0,0,0-.09-.22L19.6,9.83a.86.86,0,0,0-.76-.45H11.15a.87.87,0,0,0-.76.45L6.65,16.76,1.13,12,0,13.3l6.33,5.47a.87.87,0,0,0,1.33-.24l2.89-5.36L9,27.84ZM11,26.11l1.55-15h4.44l.52,15Z"/><polygon class="cls-2" points="32.54 34.48 29.86 42.27 20.13 42.27 19.63 40.83 25 40.83 25 39.09 19.04 39.09 18.64 37.94 27.88 37.94 27.88 36.21 18.07 36.21 18.07 36.3 17.45 34.48 15.81 35.05 18.9 44 31.09 44 34.18 35.05 32.54 34.48"/><path class="cls-2" d="M25,26.69c-3.64,0-4,3.37-4,6.06h-.87v1.73h9.23V32.75H29C29,30.06,28.63,26.69,25,26.69Zm-2.3,6.06c.06-3,.49-4.33,2.3-4.33s2.24,1.35,2.3,4.33Z"/></g></g></g></svg>