<svg xmlns="http://www.w3.org/2000/svg" viewBox="0 0 49.29 50"><defs><style>.cls-1{opacity:0.9;}.cls-2{fill:#fff;}</style></defs><title>Plan de travail 5</title><g id="_HOME" data-name="#HOME"><g id="Calque_2" data-name="Calque 2"><g class="cls-1"><path class="cls-2" d="M42.55,18.17,6.61,31.24,0,13.07,35.95,0ZM7.34,29.66,41,17.43,35.21,1.58,1.58,13.81Z"/><circle class="cls-2" cx="36.9" cy="15.85" r="1.23" transform="matrix(0.94, -0.34, 0.34, 0.94, -3.19, 13.56)"/><path class="cls-2" d="M9.12,14.09a3,3,0,0,0-1-.2,2.69,2.69,0,0,0-1,.17A2.14,2.14,0,0,0,5.85,15.2a2.46,2.46,0,0,0,1.09,3.05,2,2,0,0,0,1.64.08,2.76,2.76,0,0,0,.89-.52,3.21,3.21,0,0,0,.68-.85l.38,1a2.89,2.89,0,0,1-.66.69,3.7,3.7,0,0,1-2.17.7,3,3,0,0,1-2.18-1A3.39,3.39,0,0,1,4.67,16a3.08,3.08,0,0,1,1-2.17,3.39,3.39,0,0,1,1.1-.64,3.29,3.29,0,0,1,1-.2,3.53,3.53,0,0,1,1,.12Z"/><path class="cls-2" d="M9.52,18.65l1,2.65-.92.33L7.51,16l3.15-1.15.28.78-2.23.81.51,1.41Z"/><path class="cls-2" d="M49.29,19.68,26,50,10.65,38.22,34,7.9ZM25.75,48.27,47.56,19.91,34.19,9.63,12.38,38Z"/><circle class="cls-2" cx="43.27" cy="20.76" r="1.23" transform="translate(0.44 42.41) rotate(-52.44)"/><path class="cls-2" d="M18.89,34.18a3,3,0,0,0-1,.37,2.69,2.69,0,0,0-.73.66,2.14,2.14,0,0,0-.48,1.66,2.46,2.46,0,0,0,2.56,2A2,2,0,0,0,20.72,38a2.76,2.76,0,0,0,.47-.92A3.21,3.21,0,0,0,21.3,36l.88.67a2.89,2.89,0,0,1-.19.94,3.7,3.7,0,0,1-1.46,1.76,3,3,0,0,1-2.37.33,3.39,3.39,0,0,1-2-1.52,3.08,3.08,0,0,1-.3-2.39,3.39,3.39,0,0,1,.58-1.13,3.29,3.29,0,0,1,.74-.71,3.53,3.53,0,0,1,.94-.45Z"/><path class="cls-2" d="M21.68,37.81l2.24,1.72-.6.77-4.77-3.66,2-2.66.66.51-1.45,1.88,1.19.91Z"/></g></g></g></svg>