<svg xmlns="http://www.w3.org/2000/svg" viewBox="0 0 43.43 38"><defs><style>.cls-1{opacity:0.9;}.cls-2{fill:#fff;}</style></defs><title>Plan de travail 7</title><g id="_HOME" data-name="#HOME"><g id="Calque_2" data-name="Calque 2"><g class="cls-1"><path class="cls-2" d="M41.95,0a3.46,3.46,0,0,1-3.45,3.45A3.46,3.46,0,0,1,35,0H33.56A3.46,3.46,0,0,1,30.1,3.45,3.46,3.46,0,0,1,26.65,0H25.17a3.46,3.46,0,0,1-3.45,3.45A3.46,3.46,0,0,1,18.26,0H16.78a3.46,3.46,0,0,1-3.45,3.45A3.46,3.46,0,0,1,9.87,0H8.39A3.46,3.46,0,0,1,4.94,3.45,3.46,3.46,0,0,1,1.48,0H0A4.94,4.94,0,0,0,4.94,4.94,4.94,4.94,0,0,0,9.13,2.6a4.94,4.94,0,0,0,4.19,2.34A4.94,4.94,0,0,0,17.52,2.6a4.94,4.94,0,0,0,4.19,2.34A4.94,4.94,0,0,0,25.91,2.6,4.94,4.94,0,0,0,30.1,4.94,4.94,4.94,0,0,0,34.3,2.6a4.94,4.94,0,0,0,4.19,2.34A4.94,4.94,0,0,0,43.43,0Z"/><path class="cls-2" d="M18.14,13.2a3.7,3.7,0,1,0-3.7,3.7A3.71,3.71,0,0,0,18.14,13.2Zm-5.92,0a2.22,2.22,0,1,1,2.22,2.22A2.22,2.22,0,0,1,12.21,13.2Z"/><path class="cls-2" d="M17.77,19l5.51-1.14a.74.74,0,0,0,.46-.3l3.93-5.67L26.45,11l-3.76,5.42-5.24,1.08H10.36a.74.74,0,0,0-.74.68l-.42,5H4.69a.74.74,0,0,0-.74.74V38H5.43V24.68H33.06V38h1.48V24.68h3.7V23.19H17.77ZM11,19h5.24v4.19H10.7Z"/></g></g></g></svg>